<?xml version="1.0"?>
<svg xmlns="http://www.w3.org/2000/svg" viewBox="0 0 24 24" enable-background="new 0 0 24 24">
    <path d="M 10 2 C 9.7 2 9.5 2.2 9.5 2.5 L 9.3125 4.5 C 8.4125 4.8 7.60625 5.30625 6.90625 5.90625 L 5 5 C 4.8 4.9 4.50625 4.9875 4.40625 5.1875 L 2.40625 8.6875 C 2.20625 8.9875 2.2 9.30625 2.5 9.40625 L 4.1875 10.59375 C 3.9875 11.09375 4 11.5 4 12 C 4 12.5 3.99375 12.90625 4.09375 13.40625 L 2.40625 14.59375 C 2.20625 14.69375 2.1125 15.0125 2.3125 15.3125 L 4.3125 18.8125 C 4.5125 19.0125 4.8 19.1 5 19 L 6.90625 18.1875 C 7.60625 18.7875 8.4125 19.19375 9.3125 19.59375 L 9.5 21.59375 C 9.5 21.89375 9.7 22.09375 10 22.09375 L 14 22.09375 C 14.3 22.09375 14.5 21.89375 14.5 21.59375 L 14.6875 19.59375 C 15.5875 19.29375 16.39375 18.7875 17.09375 18.1875 L 19 19 C 19.2 19.1 19.49375 19.0125 19.59375 18.8125 L 21.59375 15.3125 C 21.69375 15.1125 21.7 14.79375 21.5 14.59375 L 19.90625 13.40625 C 20.00625 12.90625 20 12.5 20 12 C 20 11.5 20.00625 11.09375 19.90625 10.59375 L 21.59375 9.40625 C 21.79375 9.30625 21.8875 8.9875 21.6875 8.6875 L 19.6875 5.1875 C 19.4875 4.9875 19.2 4.9 19 5 L 17.09375 5.8125 C 16.39375 5.2125 15.5875 4.80625 14.6875 4.40625 L 14.5 2.40625 C 14.5 2.20625 14.3 2 14 2 L 10 2 z M 12 7 C 14.8 7 17 9.2 17 12 C 17 14.8 14.8 17 12 17 C 9.2 17 7 14.8 7 12 C 7 9.2 9.2 7 12 7 z M 12 9 C 10.3 9 9 10.3 9 12 C 9 13.7 10.3 15 12 15 C 13.7 15 15 13.7 15 12 C 15 10.3 13.7 9 12 9 z"/>
</svg>
