<svg xmlns="http://www.w3.org/2000/svg" viewBox="0 0 512 512" width="512" height="512">
	<style>
		tspan { white-space:pre }
		.shp0 { fill: #ffffff } 
		.shp1 { fill: #000000 } 
	</style>
	<g id="Layer">
		<g id="Layer">
			<g id="Layer">
				<path id="Shape 1" class="shp0" d="M47 227L142 227L142 500L47 500L47 227Z" />
				<path id="Shape 2" class="shp0" d="M148 166L268 166L268 505L148 505L148 166Z" />
				<path id="Shape 3" class="shp0" d="M211 8L270 8L270 159L211 159L211 8Z" />
				<path id="Shape 4" class="shp0" d="M278 256L356 256L356 502L278 502L278 256Z" />
				<path id="Shape 5" class="shp0" d="M366 62L468 62L468 500L366 500L366 62Z" />
			</g>
			<path id="Layer" fill-rule="evenodd" class="shp1" d="M479.49 59.14L479.49 501.8C479.49 507.43 474.92 512 469.29 512L42.71 512C37.08 512 32.51 507.43 32.51 501.8L32.51 223.37C32.51 217.74 37.08 213.17 42.71 213.17L63.24 213.17L63.24 175.43C63.24 169.79 67.8 165.23 73.44 165.23C79.07 165.23 83.63 169.79 83.63 175.43L83.63 213.17L135.84 213.17L135.84 163.55C135.84 157.92 140.4 153.35 146.03 153.35L157.07 153.35L157.07 96.89C157.07 91.26 161.64 86.69 167.27 86.69C172.9 86.69 177.47 91.26 177.47 96.89L177.47 153.35L200 153.35L200 10.2C200 4.57 204.57 0 210.2 0L271.56 0C277.19 0 281.75 4.57 281.75 10.2L281.75 246.89L351.73 246.89L351.73 59.14C351.73 53.51 356.3 48.94 361.93 48.94L469.29 48.94C474.92 48.94 479.49 53.51 479.49 59.14ZM135.83 491.6L135.83 233.57L52.91 233.57L52.91 491.6L135.83 491.6ZM261.36 491.6L261.36 173.75L156.23 173.75L156.23 491.6L261.36 491.6ZM261.36 20.4L220.4 20.4L220.4 153.35L261.36 153.35L261.36 20.4ZM351.72 267.29L281.75 267.29L281.75 491.6L351.72 491.6L351.72 267.29ZM459.09 69.34L372.13 69.34L372.13 491.6L459.09 491.6L459.09 69.34Z" />
		</g>
	</g>
	<g id="Layer">
		<g id="Layer">
			<path id="Layer" class="shp1" d="M186.28 199.03C180.64 199.03 176.08 203.6 176.08 209.23L176.08 222.77C176.08 228.41 180.64 232.97 186.28 232.97C191.91 232.97 196.48 228.41 196.48 222.77L196.48 209.23C196.47 203.6 191.91 199.03 186.28 199.03Z" />
		</g>
	</g>
	<g id="Layer">
		<g id="Layer">
			<path id="Layer" class="shp1" d="M229.78 199.03C224.15 199.03 219.58 203.6 219.58 209.23L219.58 222.77C219.58 228.41 224.15 232.97 229.78 232.97C235.41 232.97 239.98 228.41 239.98 222.77L239.98 209.23C239.98 203.6 235.41 199.03 229.78 199.03Z" />
		</g>
	</g>
	<g id="Layer">
		<g id="Layer">
			<path id="Layer" class="shp1" d="M240.66 105.5C235.02 105.5 230.46 110.06 230.46 115.7L230.46 129.24C230.46 134.87 235.02 139.44 240.66 139.44C246.29 139.44 250.86 134.87 250.86 129.24L250.86 115.7C250.86 110.06 246.29 105.5 240.66 105.5Z" />
		</g>
	</g>
	<g id="Layer">
		<g id="Layer">
			<path id="Layer" class="shp1" d="M240.66 52.21C235.02 52.21 230.46 56.77 230.46 62.41L230.46 75.95C230.46 81.58 235.02 86.15 240.66 86.15C246.29 86.15 250.86 81.58 250.86 75.95L250.86 62.41C250.86 56.77 246.29 52.21 240.66 52.21Z" />
		</g>
	</g>
	<g id="Layer">
		<g id="Layer">
			<path id="Layer" class="shp1" d="M186.28 258.41C180.64 258.41 176.08 262.98 176.08 268.61L176.08 282.15C176.08 287.79 180.64 292.35 186.28 292.35C191.91 292.35 196.48 287.79 196.48 282.15L196.48 268.61C196.47 262.98 191.91 258.41 186.28 258.41Z" />
		</g>
	</g>
	<g id="Layer">
		<g id="Layer">
			<path id="Layer" class="shp1" d="M229.78 258.41C224.15 258.41 219.58 262.98 219.58 268.61L219.58 282.15C219.58 287.79 224.15 292.35 229.78 292.35C235.41 292.35 239.98 287.79 239.98 282.15L239.98 268.61C239.98 262.98 235.41 258.41 229.78 258.41Z" />
		</g>
	</g>
	<g id="Layer">
		<g id="Layer">
			<path id="Layer" class="shp1" d="M186.28 313.62C180.64 313.62 176.08 318.19 176.08 323.82L176.08 337.36C176.08 343 180.64 347.56 186.28 347.56C191.91 347.56 196.48 343 196.48 337.36L196.48 323.82C196.47 318.19 191.91 313.62 186.28 313.62Z" />
		</g>
	</g>
	<g id="Layer">
		<g id="Layer">
			<path id="Layer" class="shp1" d="M229.78 313.62C224.15 313.62 219.58 318.19 219.58 323.82L219.58 337.36C219.58 343 224.15 347.56 229.78 347.56C235.41 347.56 239.98 343 239.98 337.36L239.98 323.82C239.98 318.19 235.41 313.62 229.78 313.62Z" />
		</g>
	</g>
	<g id="Layer">
		<g id="Layer">
			<path id="Layer" class="shp1" d="M186.28 373C180.64 373 176.08 377.57 176.08 383.2L176.08 396.74C176.08 402.38 180.64 406.94 186.28 406.94C191.91 406.94 196.48 402.38 196.48 396.74L196.48 383.2C196.47 377.57 191.91 373 186.28 373Z" />
		</g>
	</g>
	<g id="Layer">
		<g id="Layer">
			<path id="Layer" class="shp1" d="M229.78 373C224.15 373 219.58 377.57 219.58 383.2L219.58 396.74C219.58 402.38 224.15 406.94 229.78 406.94C235.41 406.94 239.98 402.38 239.98 396.74L239.98 383.2C239.98 377.57 235.41 373 229.78 373Z" />
		</g>
	</g>
	<g id="Layer">
		<g id="Layer">
			<path id="Layer" class="shp1" d="M186.28 432.38C180.64 432.38 176.08 436.94 176.08 442.58L176.08 456.12C176.08 461.75 180.64 466.32 186.28 466.32C191.91 466.32 196.48 461.75 196.48 456.12L196.48 442.58C196.47 436.94 191.91 432.38 186.28 432.38Z" />
		</g>
	</g>
	<g id="Layer">
		<g id="Layer">
			<path id="Layer" class="shp1" d="M229.78 432.38C224.15 432.38 219.58 436.94 219.58 442.58L219.58 456.12C219.58 461.75 224.15 466.32 229.78 466.32C235.41 466.32 239.98 461.75 239.98 456.12L239.98 442.58C239.98 436.94 235.41 432.38 229.78 432.38Z" />
		</g>
	</g>
	<g id="Layer">
		<g id="Layer">
			<path id="Layer" class="shp1" d="M398.36 199.03C392.73 199.03 388.16 203.6 388.16 209.23L388.16 222.77C388.16 228.41 392.73 232.97 398.36 232.97C403.99 232.97 408.56 228.41 408.56 222.77L408.56 209.23C408.56 203.6 403.99 199.03 398.36 199.03Z" />
		</g>
	</g>
	<g id="Layer">
		<g id="Layer">
			<path id="Layer" class="shp1" d="M436.43 199.03C430.8 199.03 426.23 203.6 426.23 209.23L426.23 222.77C426.23 228.41 430.8 232.97 436.43 232.97C442.06 232.97 446.63 228.41 446.63 222.77L446.63 209.23C446.63 203.6 442.06 199.03 436.43 199.03Z" />
		</g>
	</g>
	<g id="Layer">
		<g id="Layer">
			<path id="Layer" class="shp1" d="M398.36 258.41C392.73 258.41 388.16 262.98 388.16 268.61L388.16 282.15C388.16 287.79 392.73 292.35 398.36 292.35C403.99 292.35 408.56 287.79 408.56 282.15L408.56 268.61C408.56 262.98 403.99 258.41 398.36 258.41Z" />
		</g>
	</g>
	<g id="Layer">
		<g id="Layer">
			<path id="Layer" class="shp1" d="M436.43 258.41C430.8 258.41 426.23 262.98 426.23 268.61L426.23 282.15C426.23 287.79 430.8 292.35 436.43 292.35C442.06 292.35 446.63 287.79 446.63 282.15L446.63 268.61C446.63 262.98 442.06 258.41 436.43 258.41Z" />
		</g>
	</g>
	<g id="Layer">
		<g id="Layer">
			<path id="Layer" class="shp1" d="M398.36 313.62C392.73 313.62 388.16 318.19 388.16 323.82L388.16 337.36C388.16 343 392.73 347.56 398.36 347.56C403.99 347.56 408.56 343 408.56 337.36L408.56 323.82C408.56 318.19 403.99 313.62 398.36 313.62Z" />
		</g>
	</g>
	<g id="Layer">
		<g id="Layer">
			<path id="Layer" class="shp1" d="M436.43 313.62C430.8 313.62 426.23 318.19 426.23 323.82L426.23 337.36C426.23 343 430.8 347.56 436.43 347.56C442.06 347.56 446.63 343 446.63 337.36L446.63 323.82C446.63 318.19 442.06 313.62 436.43 313.62Z" />
		</g>
	</g>
	<g id="Layer">
		<g id="Layer">
			<path id="Layer" class="shp1" d="M398.36 85.69C392.73 85.69 388.16 90.25 388.16 95.89L388.16 109.43C388.16 115.06 392.73 119.63 398.36 119.63C403.99 119.63 408.56 115.06 408.56 109.43L408.56 95.89C408.56 90.25 403.99 85.69 398.36 85.69Z" />
		</g>
	</g>
	<g id="Layer">
		<g id="Layer">
			<path id="Layer" class="shp1" d="M436.43 85.69C430.8 85.69 426.23 90.25 426.23 95.89L426.23 109.43C426.23 115.06 430.8 119.63 436.43 119.63C442.06 119.63 446.63 115.06 446.63 109.43L446.63 95.89C446.63 90.25 442.06 85.69 436.43 85.69Z" />
		</g>
	</g>
	<g id="Layer">
		<g id="Layer">
			<path id="Layer" class="shp1" d="M398.36 140.9C392.73 140.9 388.16 145.47 388.16 151.1L388.16 164.64C388.16 170.27 392.73 174.84 398.36 174.84C403.99 174.84 408.56 170.27 408.56 164.64L408.56 151.1C408.56 145.47 403.99 140.9 398.36 140.9Z" />
		</g>
	</g>
	<g id="Layer">
		<g id="Layer">
			<path id="Layer" class="shp1" d="M436.43 140.9C430.8 140.9 426.23 145.47 426.23 151.1L426.23 164.64C426.23 170.27 430.8 174.84 436.43 174.84C442.06 174.84 446.63 170.27 446.63 164.64L446.63 151.1C446.63 145.47 442.06 140.9 436.43 140.9Z" />
		</g>
	</g>
	<g id="Layer">
		<g id="Layer">
			<path id="Layer" class="shp1" d="M398.36 373C392.73 373 388.16 377.57 388.16 383.2L388.16 396.74C388.16 402.38 392.73 406.94 398.36 406.94C403.99 406.94 408.56 402.38 408.56 396.74L408.56 383.2C408.56 377.57 403.99 373 398.36 373Z" />
		</g>
	</g>
	<g id="Layer">
		<g id="Layer">
			<path id="Layer" class="shp1" d="M436.43 373C430.8 373 426.23 377.57 426.23 383.2L426.23 396.74C426.23 402.38 430.8 406.94 436.43 406.94C442.06 406.94 446.63 402.38 446.63 396.74L446.63 383.2C446.63 377.57 442.06 373 436.43 373Z" />
		</g>
	</g>
	<g id="Layer">
		<g id="Layer">
			<path id="Layer" class="shp1" d="M398.36 432.38C392.73 432.38 388.16 436.94 388.16 442.58L388.16 456.12C388.16 461.75 392.73 466.32 398.36 466.32C403.99 466.32 408.56 461.75 408.56 456.12L408.56 442.58C408.56 436.94 403.99 432.38 398.36 432.38Z" />
		</g>
	</g>
	<g id="Layer">
		<g id="Layer">
			<path id="Layer" class="shp1" d="M436.43 432.38C430.8 432.38 426.23 436.94 426.23 442.58L426.23 456.12C426.23 461.75 430.8 466.32 436.43 466.32C442.06 466.32 446.63 461.75 446.63 456.12L446.63 442.58C446.63 436.94 442.06 432.38 436.43 432.38Z" />
		</g>
	</g>
	<g id="Layer">
		<g id="Layer">
			<path id="Layer" class="shp1" d="M113.41 253.41L76.43 253.41C70.8 253.41 66.23 257.98 66.23 263.61C66.23 269.25 70.8 273.81 76.43 273.81L113.41 273.81C119.04 273.81 123.61 269.25 123.61 263.61C123.61 257.98 119.04 253.41 113.41 253.41Z" />
		</g>
	</g>
	<g id="Layer">
		<g id="Layer">
			<path id="Layer" class="shp1" d="M113.41 292.93L76.43 292.93C70.8 292.93 66.23 297.49 66.23 303.13C66.23 308.76 70.8 313.33 76.43 313.33L113.41 313.33C119.04 313.33 123.61 308.76 123.61 303.13C123.61 297.49 119.04 292.93 113.41 292.93Z" />
		</g>
	</g>
	<g id="Layer">
		<g id="Layer">
			<path id="Layer" class="shp1" d="M113.41 333.72L76.43 333.72C70.8 333.72 66.23 338.28 66.23 343.92C66.23 349.55 70.8 354.12 76.43 354.12L113.41 354.12C119.04 354.12 123.61 349.55 123.61 343.92C123.61 338.28 119.04 333.72 113.41 333.72Z" />
		</g>
	</g>
	<g id="Layer">
		<g id="Layer">
			<path id="Layer" class="shp1" d="M113.41 373.23L76.43 373.23C70.8 373.23 66.23 377.8 66.23 383.43C66.23 389.06 70.8 393.63 76.43 393.63L113.41 393.63C119.04 393.63 123.61 389.06 123.61 383.43C123.61 377.8 119.04 373.23 113.41 373.23Z" />
		</g>
	</g>
	<g id="Layer">
		<g id="Layer">
			<path id="Layer" class="shp1" d="M113.41 414.02L76.43 414.02C70.8 414.02 66.23 418.59 66.23 424.22C66.23 429.85 70.8 434.42 76.43 434.42L113.41 434.42C119.04 434.42 123.61 429.85 123.61 424.22C123.61 418.59 119.04 414.02 113.41 414.02Z" />
		</g>
	</g>
	<g id="Layer">
		<g id="Layer">
			<path id="Layer" class="shp1" d="M113.41 453.54L76.43 453.54C70.8 453.54 66.23 458.1 66.23 463.73C66.23 469.37 70.8 473.93 76.43 473.93L113.41 473.93C119.04 473.93 123.61 469.37 123.61 463.73C123.61 458.1 119.04 453.54 113.41 453.54Z" />
		</g>
	</g>
	<g id="Layer">
		<g id="Layer">
			<path id="Layer" class="shp1" d="M328.75 281.69L302.65 281.69C297.02 281.69 292.45 286.26 292.45 291.89C292.45 297.52 297.02 302.09 302.65 302.09L328.75 302.09C334.38 302.09 338.95 297.52 338.95 291.89C338.95 286.26 334.38 281.69 328.75 281.69Z" />
		</g>
	</g>
	<g id="Layer">
		<g id="Layer">
			<path id="Layer" class="shp1" d="M328.75 329.55L302.65 329.55C297.02 329.55 292.45 334.11 292.45 339.75C292.45 345.38 297.02 349.95 302.65 349.95L328.75 349.95C334.38 349.95 338.95 345.38 338.95 339.75C338.95 334.11 334.38 329.55 328.75 329.55Z" />
		</g>
	</g>
	<g id="Layer">
		<g id="Layer">
			<path id="Layer" class="shp1" d="M328.75 378.49L302.65 378.49C297.02 378.49 292.45 383.05 292.45 388.69C292.45 394.32 297.02 398.89 302.65 398.89L328.75 398.89C334.38 398.89 338.95 394.32 338.95 388.69C338.95 383.06 334.38 378.49 328.75 378.49Z" />
		</g>
	</g>
	<g id="Layer">
		<g id="Layer">
			<path id="Layer" class="shp1" d="M328.75 428.52L302.65 428.52C297.02 428.52 292.45 433.09 292.45 438.72C292.45 444.35 297.02 448.92 302.65 448.92L328.75 448.92C334.38 448.92 338.95 444.35 338.95 438.72C338.95 433.09 334.38 428.52 328.75 428.52Z" />
		</g>
	</g>
	<g id="Layer">
		<g id="Layer">
			<path id="Layer" class="shp1" d="M167.27 43.86C161.63 43.86 157.07 48.42 157.07 54.06L157.07 66.3C157.07 71.93 161.63 76.49 167.27 76.49C172.9 76.49 177.47 71.93 177.47 66.3L177.47 54.06C177.47 48.42 172.9 43.86 167.27 43.86Z" />
		</g>
	</g>
	<g id="Layer">
	</g>
	<g id="Layer">
	</g>
	<g id="Layer">
	</g>
	<g id="Layer">
	</g>
	<g id="Layer">
	</g>
	<g id="Layer">
	</g>
	<g id="Layer">
	</g>
	<g id="Layer">
	</g>
	<g id="Layer">
	</g>
	<g id="Layer">
	</g>
	<g id="Layer">
	</g>
	<g id="Layer">
	</g>
	<g id="Layer">
	</g>
	<g id="Layer">
	</g>
</svg>